<?xml version="1.0" encoding="UTF-8"?> <svg xmlns="http://www.w3.org/2000/svg" xmlns:xlink="http://www.w3.org/1999/xlink" width="249" height="36" viewBox="0 0 249 36"><defs><polygon id="a" points="44.765 .507 0 .507 0 34.866 44.765 34.866 44.765 .507"></polygon><polygon id="c" points="48.432 .507 .463 .507 .463 34.866 48.432 34.866"></polygon></defs><g fill="none" fill-rule="evenodd"><mask id="b" fill="white"><use xlink:href="#a"></use></mask><path fill="#D11532" d="M9.15291667,0.506529762 L35.8381019,0.506529762 C41.9084722,0.506529762 44.7654167,3.13772024 44.7654167,8.82754167 C44.7654167,12.9918869 43.7061574,17.3865893 42.3260648,20.1099226 C39.5200463,25.7101607 35.9297685,27.2330774 28.6626389,27.2330774 L16.6084722,27.2330774 L14.5841667,34.8655774 L-0.00101851852,34.8655774 L9.15291667,0.506529762 Z M23.3714352,18.6765893 C27.8783796,18.6765893 30.1343981,17.0128988 30.1343981,13.5473036 C30.1343981,11.6967679 28.9860185,10.8623631 26.5466667,10.8623631 L20.9320833,10.8623631 L18.8644907,18.6765893 L23.3714352,18.6765893 Z" mask="url(#b)"></path><path fill="#D11532" d="M42.4926602 22.0275398C43.4831939 17.1607557 45.0080944 13.6316548 46.4104815 11.7107517 48.5922623 8.68545353 50.9825765 6.83900408 54.1157909 6.01753262 57.0404719 5.27299656 60.2544931 5 63.924681 5 69.2839896 5 73.3608177 5.54599312 76.5357388 7.31550717 78.926053 8.64574494 80 11.1176047 80 15.0040829 80 17.2376911 79.6272465 19.5978705 78.8869529 22.1466656 77.7712992 26.1100793 76.0821786 29.2842847 73.8169845 31.7164358 70.7254767 35.0147306 65.6998216 36 57.9919056 36 46.697215 36 42 33.6001121 42 26.4203026 42 25.0875831 42.1668267 23.6332559 42.4926602 22.0275398M57.5774455 17.3568169C56.216765 19.3968457 55.189738 22.8912017 55.189738 25.0875831 55.189738 26.7379713 56.6312251 27.6760868 59.4724928 27.6760868 61.2059267 27.6760868 62.5249005 27.1673205 63.4294142 26.1497878 64.2974345 25.1670002 64.7900947 24.0303418 65.2462615 22.6132415 65.8640417 20.7692739 66.1898752 19.2826835 66.1898752 18.2204787 66.1898752 16.2176767 64.7900947 15.2373709 61.9436137 15.2373709 59.965153 15.2373709 58.5236658 15.9421984 57.5774455 17.3568169M90.9152287 27.9279916C95.1629814 27.9279916 97.1051768 27.6115888 97.1051768 26.0794021 97.1051768 25.0903319 96.5371039 24.7390501 95.239748 24.7390501 93.1824027 24.7390501 91.9259891 24.7764205 91.5626271 24.7764205 84.4821862 24.7764205 81.3245194 23.3164832 81.3245194 18.1593667 81.3245194 14.4148517 82.944295 10.5183637 85.372679 8.19392429 88.0006561 5.670176 92.5733876 5 99.574503 5 104.510596 5 110.012204 5.39612634 116 6.26311983L113.487173 15.5608776C109.687225 14.8109781 106.450233 14.4547135 103.699429 14.4547135 98.1594384 14.4547135 95.444459 14.8109781 95.444459 16.5051033 95.444459 17.7283613 96.4168362 17.7283613 98.6021258 17.7283613L103.453776 17.7283613C109.037268 17.7283613 111.629421 19.4199952 111.629421 23.5980069 111.629421 27.4944949 110.293682 30.8030218 108.110951 32.773688 105.477856 35.1703769 101.271045 36 95.1245981 36 89.2980119 36 83.2257726 35.4867797 77 34.4653219L79.0215209 26.9065338C83.5942523 27.5343567 87.5554098 27.9279916 90.9152287 27.9279916"></path><polygon fill="#D11532" points="130.959 35 117.909 35 123.349 14.851 115 14.851 117.702 5 147 5 144.342 14.851 136.404 14.851"></polygon><g transform="translate(139)"><mask id="d" fill="white"><use xlink:href="#c"></use></mask><path fill="#D11532" d="M9.56715864,0.506529762 L25.72549,0.506529762 L28.1521527,15.3492083 C28.2433425,15.9481369 28.514379,17.8908155 28.9753942,21.1746845 C29.4364095,18.6765893 29.9835485,16.6903988 30.3939027,15.0676607 L34.2846688,0.506529762 L48.4317578,0.506529762 L39.3178408,34.8655774 L23.3013603,34.8655774 L20.3731536,21.6814702 C20.2338358,21.0825417 19.8209485,19.232006 19.2256815,16.0863512 C18.8153273,18.587006 18.3112502,20.4810536 17.9439578,21.870875 L14.4230171,34.8655774 L0.463373898,34.8655774 L9.56715864,0.506529762 Z" mask="url(#d)"></path></g><polygon fill="#D11532" points="188.04 5 218 5 215.415 14.568 198.174 14.568 197.362 17.596 214.606 17.596 212.867 24.018 195.668 24.018 194.859 27.046 212.1 27.046 209.963 35 180 35"></polygon><polygon fill="#D11532" points="232.96 35 219.907 35 225.347 14.851 217 14.851 219.702 5 249 5 246.344 14.851 238.403 14.851"></polygon><path fill="#D11532" d="M236.581749,34.1665399 L236.241065,34.1665399 L236.241065,31.8365019 L237.123194,31.8365019 C237.667681,31.8365019 237.932319,32.0494297 237.932319,32.4965779 C237.932319,32.913308 237.661597,33.0897338 237.330038,33.1231939 L238.005323,34.1665399 L237.631179,34.1665399 L237.001521,33.138403 L236.581749,33.138403 L236.581749,34.1665399 Z M236.581749,32.8524715 L236.974144,32.8524715 C237.290494,32.8524715 237.591635,32.8311787 237.591635,32.4752852 C237.591635,32.1741445 237.320913,32.1193916 237.062357,32.1193916 L236.581749,32.1193916 L236.581749,32.8524715 Z M237.001521,35 C235.894297,35 235,34.1087452 235,32.9984791 C235,31.8942966 235.894297,31 237.001521,31 C238.108745,31 239,31.8942966 239,32.9984791 C239,34.1087452 238.108745,35 237.001521,35 L237.001521,35 Z M237.001521,31.3163498 C236.092015,31.3163498 235.374144,32.0585551 235.374144,32.9984791 C235.374144,33.9475285 236.092015,34.6897338 237.001521,34.6897338 C237.911027,34.6897338 238.625856,33.9475285 238.625856,32.9984791 C238.625856,32.0585551 237.911027,31.3163498 237.001521,31.3163498 L237.001521,31.3163498 Z"></path></g></svg> 